# xmcd
#
# Track frame offsets: 
#        150
#        21675
#        42735
#        57362
#        75247
#        93262
#        106400
#        126862
#        141562
#        160120
#        171550
#
# Disc length: 2437 seconds
#
# Revision: 1
# Processed by: cddbd v1.5.2PL0 Copyright (c) Steve Scherf et al.
# Submitted via: ExactAudioCopy v0.99pb4
#
DISCID=9c09830b
DTITLE=Kenny Neal - Big News from Baton Rouge
DYEAR=1988
DGENRE=Blues
TTITLE0=Outside Looking In
TTITLE1=Caught Your Back Door Man
TTITLE2=Don't Dip In My Business
TTITLE3=Bio On The Bayou
TTITLE4=Evalina
TTITLE5=Loretta
TTITLE6=Baby Bee
TTITLE7=Is It All Right?
TTITLE8=Cost Of Living
TTITLE9=Early One Morning
TTITLE10=Early One Morning  (acoustic version)
EXTD=The album kicks.\nMy name is Ken.
EXTT0=
EXTT1=
EXTT2=
EXTT3=
EXTT4=
EXTT5=
EXTT6=
EXTT7=
EXTT8=
EXTT9=
EXTT10=
PLAYORDER=
